<svg width="48" height="48" viewBox="0 0 48 48" fill="none" xmlns="http://www.w3.org/2000/svg">
<g id="7150658_pen_quill_feather_write_writing_icon 4" clip-path="url(#clip0_111_4387)">
<g id="Poetry Icon">
<path id="Vector" d="M24 48C37.2548 48 48 37.2548 48 24C48 10.7452 37.2548 0 24 0C10.7452 0 0 10.7452 0 24C0 37.2548 10.7452 48 24 48Z" fill="#566CA2"/>
<g id="vuesax/linear/heart">
<g id="heart">
<path id="Vector_2" d="M24.0942 32.3696C23.7684 32.4813 23.2317 32.4813 22.9059 32.3696C20.1267 31.4481 13.9167 27.604 13.9167 21.0884C13.9167 18.2122 16.303 15.8853 19.2451 15.8853C20.9892 15.8853 22.5322 16.7044 23.5001 17.9702C24.468 16.7044 26.0205 15.8853 27.7551 15.8853C30.6972 15.8853 33.0834 18.2122 33.0834 21.0884C33.0834 27.604 26.8734 31.4481 24.0942 32.3696Z" fill="white" stroke="white" stroke-width="1.5" stroke-linecap="round" stroke-linejoin="round"/>
</g>
</g>
</g>
</g>
<defs>
<clipPath id="clip0_111_4387">
<rect width="48" height="48" fill="white"/>
</clipPath>
</defs>
</svg>
