<svg width="22" height="23" viewBox="0 0 22 23" fill="none" xmlns="http://www.w3.org/2000/svg">
<g clip-path="url(#clip0_111_3875)">
<path d="M8.2749 20.6666C8.75815 20.6666 9.1499 20.2562 9.1499 19.7499C9.1499 19.2437 8.75815 18.8333 8.2749 18.8333C7.79165 18.8333 7.3999 19.2437 7.3999 19.7499C7.3999 20.2562 7.79165 20.6666 8.2749 20.6666Z" stroke="#566CA2" stroke-width="2" stroke-linecap="round" stroke-linejoin="round"/>
<path d="M17.8999 20.6666C18.3832 20.6666 18.7749 20.2562 18.7749 19.7499C18.7749 19.2437 18.3832 18.8333 17.8999 18.8333C17.4167 18.8333 17.0249 19.2437 17.0249 19.7499C17.0249 20.2562 17.4167 20.6666 17.8999 20.6666Z" stroke="#566CA2" stroke-width="2" stroke-linecap="round" stroke-linejoin="round"/>
<path d="M1.2749 1.41675H4.7749L7.1199 13.6909C7.19992 14.1129 7.41907 14.492 7.739 14.7619C8.05894 15.0317 8.45926 15.175 8.8699 15.1667H17.3749C17.7855 15.175 18.1859 15.0317 18.5058 14.7619C18.8257 14.492 19.0449 14.1129 19.1249 13.6909L20.5249 6.00008H5.6499" fill="#566CA2"/>
<path d="M1.2749 1.41675H4.7749L7.1199 13.6909C7.19992 14.1129 7.41907 14.492 7.739 14.7619C8.05894 15.0317 8.45926 15.175 8.8699 15.1667H17.3749C17.7855 15.175 18.1859 15.0317 18.5058 14.7619C18.8257 14.492 19.0449 14.1129 19.1249 13.6909L20.5249 6.00008H5.6499" stroke="#566CA2" stroke-width="2" stroke-linecap="round" stroke-linejoin="round"/>
</g>
<defs>
<clipPath id="clip0_111_3875">
<rect width="21" height="22" fill="white" transform="translate(0.399902 0.5)"/>
</clipPath>
</defs>
</svg>
