<svg width="21" height="21" viewBox="0 0 21 21" fill="none" xmlns="http://www.w3.org/2000/svg">
<path d="M8.02778 0.5H1.36111C1.06643 0.5 0.783811 0.617063 0.575437 0.825437C0.367063 1.03381 0.25 1.31643 0.25 1.61111V8.27778C0.25 8.57246 0.367063 8.85508 0.575437 9.06345C0.783811 9.27183 1.06643 9.38889 1.36111 9.38889H8.02778C8.32246 9.38889 8.60508 9.27183 8.81345 9.06345C9.02183 8.85508 9.13889 8.57246 9.13889 8.27778V1.61111C9.13889 1.31643 9.02183 1.03381 8.81345 0.825437C8.60508 0.617063 8.32246 0.5 8.02778 0.5ZM19.1389 11.6111H12.4722C12.1775 11.6111 11.8949 11.7282 11.6865 11.9365C11.4782 12.1449 11.3611 12.4275 11.3611 12.7222V19.3889C11.3611 19.6836 11.4782 19.9662 11.6865 20.1746C11.8949 20.3829 12.1775 20.5 12.4722 20.5H19.1389C19.4336 20.5 19.7162 20.3829 19.9246 20.1746C20.1329 19.9662 20.25 19.6836 20.25 19.3889V12.7222C20.25 12.4275 20.1329 12.1449 19.9246 11.9365C19.7162 11.7282 19.4336 11.6111 19.1389 11.6111ZM15.8056 0.5C13.3544 0.5 11.3611 2.49333 11.3611 4.94444C11.3611 7.39556 13.3544 9.38889 15.8056 9.38889C18.2567 9.38889 20.25 7.39556 20.25 4.94444C20.25 2.49333 18.2567 0.5 15.8056 0.5ZM4.69444 11.6111C2.24333 11.6111 0.25 13.6044 0.25 16.0556C0.25 18.5067 2.24333 20.5 4.69444 20.5C7.14556 20.5 9.13889 18.5067 9.13889 16.0556C9.13889 13.6044 7.14556 11.6111 4.69444 11.6111Z" fill="#566CA2"/>
</svg>
