<svg width="23" height="23" viewBox="0 0 23 23" fill="none" xmlns="http://www.w3.org/2000/svg">
<path d="M20.3075 5.67124L13.8275 1.13749C12.0612 -0.10001 9.34997 -0.0325101 7.65122 1.28374L2.01497 5.68249C0.889971 6.55999 0.0012207 8.35999 0.0012207 9.77749V17.54C0.0012207 20.4087 2.32997 22.7487 5.19872 22.7487H17.3262C20.195 22.7487 22.5237 20.42 22.5237 17.5512V9.92374C22.5237 8.40499 21.545 6.53749 20.3075 5.67124ZM12.1062 18.2487C12.1062 18.71 11.7237 19.0925 11.2625 19.0925C10.8012 19.0925 10.4187 18.71 10.4187 18.2487V14.8737C10.4187 14.4125 10.8012 14.03 11.2625 14.03C11.7237 14.03 12.1062 14.4125 12.1062 14.8737V18.2487Z" fill="#566CA2"/>
</svg>
