<svg width="29" height="29" viewBox="0 0 29 29" fill="none" xmlns="http://www.w3.org/2000/svg">
<g clip-path="url(#clip0_111_4317)">
<path fill-rule="evenodd" clip-rule="evenodd" d="M19.226 3.88132C19.0075 3.92286 18.8091 4.03602 18.6622 4.20292L15.1218 8.22433L7.10849 9.74791C4.93823 10.1605 3.51339 12.2544 3.92603 14.4246L4.11281 15.407C4.52543 17.5773 6.61929 19.0021 8.78955 18.5895L16.8029 17.0659L21.5721 19.5075C21.77 19.6088 21.996 19.6413 22.2145 19.5997L24.1793 19.2262C24.7219 19.123 25.0781 18.5996 24.9749 18.057L22.36 4.30337C22.2568 3.7608 21.7333 3.40459 21.1908 3.50775L19.226 3.88132Z" fill="white"/>
<path fill-rule="evenodd" clip-rule="evenodd" d="M8.416 16.6247C8.10982 16.683 7.85844 16.934 7.73618 17.3039C7.61392 17.6737 7.63474 18.1198 7.79251 18.5105L10.0982 24.221C10.6689 25.6342 11.8331 26.4686 12.9407 26.258L13.8154 26.0917C15.4349 25.7838 16.2086 23.4437 15.3741 21.3771L13.4826 16.6925C13.2543 16.1271 12.7887 15.7934 12.3456 15.8776L8.416 16.6247Z" fill="white"/>
<circle cx="23" cy="11.4446" r="2" transform="rotate(-14.8022 23 11.4446)" fill="white"/>
</g>
<defs>
<clipPath id="clip0_111_4317">
<rect width="24" height="24" fill="white" transform="translate(0 4.48291) rotate(-10.7652)"/>
</clipPath>
</defs>
</svg>
