<svg width="8" height="13" viewBox="0 0 8 13" fill="none" xmlns="http://www.w3.org/2000/svg">
<rect width="8" height="13" fill="#282828"/>
<g clip-path="url(#clip0_0_1)">
<rect x="-34" y="-88" width="414" height="857" rx="40" fill="white"/>
<path d="M381.03 -52.8132H-42.0342V52.5822C-35.131 55.2206 -13.6325 61.5804 17.1358 65.9128C55.3788 71.2978 64.2238 69.554 93.4086 63.8003L93.9083 63.7018C123.493 57.8697 124.684 54.6651 242.967 65.9128C345.134 75.628 372.484 67.8569 381.03 54.6651V-52.8132Z" fill="#DA3A2A" fill-opacity="0.52"/>
<path d="M-53 -31.6279L380.7 -66.3518L390.373 38.6571C383.538 41.8523 362.083 49.9534 330.939 56.7953C292.229 65.2994 283.001 64.288 252.555 60.9508L252.033 60.8937C221.17 57.5112 219.655 54.4161 99.4301 75.3309C-4.41306 93.396 -33.1635 87.8982 -43.1358 75.4563L-53 -31.6279Z" fill="#DE5345"/>
<path d="M-37.0054 -88H378.819V43.9767C378.819 47.0053 376.364 49.4604 373.335 49.4604H-31.5216C-34.5502 49.4604 -37.0054 47.0053 -37.0054 43.9767V-88Z" fill="#DE5345"/>
<path d="M6.5 1L1 6.5L6.5 12" stroke="white" stroke-width="2" stroke-linecap="round" stroke-linejoin="round"/>
</g>
<defs>
<clipPath id="clip0_0_1">
<rect x="-34" y="-88" width="414" height="857" rx="40" fill="white"/>
</clipPath>
</defs>
</svg>
