<svg width="49" height="41" viewBox="0 0 49 41" fill="none" xmlns="http://www.w3.org/2000/svg">
<g clip-path="url(#clip0_111_3210)">
<path d="M21.125 30.5C21.6773 30.5 22.125 30.0523 22.125 29.5C22.125 28.9477 21.6773 28.5 21.125 28.5C20.5727 28.5 20.125 28.9477 20.125 29.5C20.125 30.0523 20.5727 30.5 21.125 30.5Z" stroke="#484C52" stroke-width="2" stroke-linecap="round" stroke-linejoin="round"/>
<path d="M32.125 30.5C32.6773 30.5 33.125 30.0523 33.125 29.5C33.125 28.9477 32.6773 28.5 32.125 28.5C31.5727 28.5 31.125 28.9477 31.125 29.5C31.125 30.0523 31.5727 30.5 32.125 30.5Z" stroke="#484C52" stroke-width="2" stroke-linecap="round" stroke-linejoin="round"/>
<path d="M13.125 9.5H17.125L19.805 22.89C19.8964 23.3504 20.1469 23.764 20.5125 24.0583C20.8782 24.3526 21.3357 24.509 21.805 24.5H31.525C31.9943 24.509 32.4518 24.3526 32.8175 24.0583C33.1831 23.764 33.4336 23.3504 33.525 22.89L35.125 14.5H18.125" stroke="#484C52" stroke-width="2" stroke-linecap="round" stroke-linejoin="round"/>
</g>
<defs>
<clipPath id="clip0_111_3210">
<rect width="24" height="24" fill="white" transform="translate(12.125 8.5)"/>
</clipPath>
</defs>
</svg>
