<svg width="17" height="17" viewBox="0 0 17 17" fill="none" xmlns="http://www.w3.org/2000/svg">
<g id="icons">
<g id="cart2">
<path id="Vector" d="M7.16317 16.5287C8.02524 16.5287 8.72409 15.8299 8.72409 14.9678C8.72409 14.1057 8.02524 13.4069 7.16317 13.4069C6.3011 13.4069 5.60225 14.1057 5.60225 14.9678C5.60225 15.8299 6.3011 16.5287 7.16317 16.5287Z" fill="white"/>
<path id="Vector_2" d="M11.846 16.5287C12.7081 16.5287 13.4069 15.8299 13.4069 14.9678C13.4069 14.1057 12.7081 13.4069 11.846 13.4069C10.9839 13.4069 10.2851 14.1057 10.2851 14.9678C10.2851 15.8299 10.9839 16.5287 11.846 16.5287Z" fill="white"/>
<path id="Vector_3" d="M16.2166 5.44622C15.9044 5.05599 15.4361 4.82185 14.9678 4.82185H6.07059L5.60231 2.16829C5.44622 1.46588 4.82185 0.919556 4.04139 0.919556H2.48048C1.62197 0.919556 0.919556 1.62197 0.919556 2.48048C0.919556 3.33898 1.62197 4.04139 2.48048 4.04139H2.71461L4.04139 10.5973C4.19749 11.3777 4.82185 11.846 5.60231 11.846H13.4069C14.1093 11.846 14.6556 11.3777 14.8898 10.7533L16.4507 6.85105C16.6068 6.38277 16.5288 5.9145 16.2166 5.44622Z" fill="white"/>
</g>
</g>
</svg>
