<svg width="30" height="30" viewBox="0 0 30 30" fill="none" xmlns="http://www.w3.org/2000/svg">
<g id="1181189_chat_wechat_icon 1">
<g id="Group">
<path id="Vector" d="M20.2616 10.8864C17.8426 11.0127 15.7392 11.746 14.0315 13.4027C12.3061 15.0765 11.5184 17.1275 11.7337 19.67C10.7883 19.5529 9.92712 19.424 9.06104 19.3511C8.76193 19.3259 8.40696 19.3617 8.15363 19.5046C7.31268 19.9792 6.50643 20.5149 5.55088 21.1122C5.72622 20.3192 5.83971 19.6248 6.04061 18.9568C6.18839 18.4659 6.11992 18.1927 5.6677 17.873C2.76395 15.8229 1.53998 12.7548 2.45596 9.5961C3.30342 6.67398 5.38458 4.90181 8.21241 3.978C12.0721 2.71726 16.4098 4.00329 18.7568 7.06768C19.6044 8.17461 20.1242 9.41699 20.2616 10.8864ZM9.12881 9.90213C9.15109 9.3244 8.65051 8.80393 8.05585 8.78652C7.44707 8.76863 6.94633 9.23387 6.92855 9.83377C6.91056 10.4418 7.37559 10.929 7.98881 10.9446C8.59675 10.96 9.10633 10.4941 9.12881 9.90213ZM14.9372 8.78615C14.3404 8.79715 13.8361 9.30546 13.8467 9.88546C13.8576 10.4867 14.3523 10.957 14.966 10.9496C15.5813 10.9422 16.048 10.4669 16.0421 9.85303C16.037 9.25038 15.5445 8.77504 14.9372 8.78615Z" fill="white"/>
<path id="Vector_2" d="M25.6962 25.9667C24.9303 25.6257 24.2276 25.114 23.4796 25.0358C22.7344 24.958 21.951 25.3879 21.1714 25.4676C18.7967 25.7106 16.6691 25.0487 14.9149 23.4264C11.5784 20.3404 12.0552 15.6087 15.9153 13.0797C19.346 10.8321 24.3774 11.5814 26.7962 14.7C28.907 17.4214 28.6589 21.0339 26.0821 23.32C25.3364 23.9816 25.068 24.5261 25.5465 25.3983C25.6348 25.5594 25.6449 25.7633 25.6962 25.9667ZM16.9773 17.5251C17.465 17.5255 17.8665 17.144 17.885 16.6623C17.9044 16.1524 17.4943 15.7248 16.9837 15.7226C16.4782 15.7204 16.0547 16.154 16.0723 16.6563C16.0889 17.1363 16.4932 17.5245 16.9773 17.5251ZM22.5979 15.7246C22.1248 15.7214 21.7228 16.1087 21.7035 16.5867C21.683 17.0979 22.0803 17.5177 22.5862 17.519C23.0755 17.5206 23.4622 17.1505 23.4799 16.6636C23.4989 16.1513 23.1014 15.7281 22.5979 15.7246Z" fill="white"/>
</g>
</g>
</svg>
