<svg width="19" height="15" viewBox="0 0 19 15" fill="none" xmlns="http://www.w3.org/2000/svg">
<path id="Vector" d="M18.0997 3.37171C18.0997 4.08788 17.5378 4.66852 16.8447 4.66852C16.837 4.66852 16.8305 4.66442 16.8227 4.66429L15.2377 13.6739C15.1505 14.1644 14.7364 14.5243 14.2501 14.5243H3.87784C3.39279 14.5243 2.97677 14.1657 2.89018 13.6726L1.30548 4.66528C1.29763 4.66528 1.29104 4.66852 1.25496 4.66852C0.56191 4.66852 0 4.08788 0 3.37171C0 2.65555 0.590147 2.0749 1.25496 2.0749C1.91978 2.0749 2.50993 2.65555 2.50993 3.37171C2.50993 3.66343 2.39946 3.91929 2.24209 4.13586L5.05415 6.4604C5.55331 6.87311 6.29342 6.70497 6.57924 6.11415L8.38639 2.37933C8.03177 2.15076 7.78077 1.76172 7.78077 1.29681C7.78077 0.580648 8.37061 0 9.06397 0C9.75734 0 10.2907 0.580648 10.2907 1.29681C10.2907 1.76172 10.0409 2.15076 9.68518 2.37965L11.4923 6.11447C11.7782 6.70517 12.5186 6.87311 13.0174 6.46072L15.8295 4.13618C15.6996 3.91962 15.5898 3.63432 15.5898 3.37171C15.5898 2.65522 16.1514 2.0749 16.8447 2.0749C17.5381 2.0749 18.0997 2.65522 18.0997 3.37171Z" fill="#DA3A2A"/>
</svg>
