<svg width="26" height="26" viewBox="0 0 26 26" fill="none" xmlns="http://www.w3.org/2000/svg">
<path d="M13 0.361111C6.02331 0.361111 0.361084 6.01611 0.361084 13C0.361084 19.9767 6.02331 25.6389 13 25.6389C19.9766 25.6389 25.6389 19.9839 25.6389 13C25.6389 6.01611 19.9766 0.361111 13 0.361111Z" fill="#F4F4F6"/>
<path d="M12.9999 21.6667C8.21881 21.6667 4.33325 17.7811 4.33325 13C4.33325 8.21889 8.21881 4.33333 12.9999 4.33333C17.781 4.33333 21.6666 8.21889 21.6666 13C21.6666 17.7811 17.781 21.6667 12.9999 21.6667Z" fill="url(#paint0_linear_111_3059)"/>
<path d="M15.5422 11.635C15.9972 11.635 16.3583 11.2667 16.3583 10.8189V10.5372C16.3583 9.43944 15.4627 8.54389 14.3649 8.54389H13.816V7.67722C13.816 7.22222 13.4477 6.86111 12.9999 6.86111C12.5522 6.86111 12.1838 7.22944 12.1838 7.67722V8.54389H11.6349C10.5372 8.54389 9.6416 9.43944 9.6416 10.5372V11.8228C9.6416 12.9206 10.5372 13.8161 11.6349 13.8161H14.3649C14.5599 13.8161 14.7188 13.975 14.7188 14.1772V15.4628C14.7188 15.6578 14.5599 15.8239 14.3649 15.8239H11.6349C11.4399 15.8239 11.281 15.665 11.281 15.4628V15.1811C11.281 14.7261 10.9127 14.365 10.4649 14.365C10.0172 14.365 9.64882 14.7333 9.64882 15.1811V15.4628C9.64882 16.5606 10.5444 17.4561 11.6422 17.4561H12.191V18.3228C12.191 18.7778 12.5594 19.1389 13.0072 19.1389C13.4549 19.1389 13.8233 18.7706 13.8233 18.3228V17.4561H14.3722C15.4699 17.4561 16.3655 16.5606 16.3655 15.4628V14.1772C16.3655 13.0794 15.4699 12.1839 14.3722 12.1839H11.6422C11.4472 12.1839 11.2883 12.025 11.2883 11.8228V10.5372C11.2883 10.3422 11.4472 10.1761 11.6422 10.1761H14.3722C14.5672 10.1761 14.726 10.335 14.726 10.5372V10.8189C14.7188 11.2739 15.0872 11.635 15.5422 11.635Z" fill="white"/>
<defs>
<linearGradient id="paint0_linear_111_3059" x1="3.04069" y1="22.9592" x2="19.2352" y2="6.76469" gradientUnits="userSpaceOnUse">
<stop stop-color="#F3AA0F"/>
<stop offset="1" stop-color="#FED46E"/>
</linearGradient>
</defs>
</svg>
