<svg width="31" height="31" viewBox="0 0 31 31" fill="none" xmlns="http://www.w3.org/2000/svg">
<g id="10218895_stethoscope_tool_doctor_medical_medicine_icon 1">
<path id="Vector" fill-rule="evenodd" clip-rule="evenodd" d="M18.4053 10.2804L18.4062 5.81159L19.1822 5.81062C19.717 5.81062 20.151 5.37565 20.15 4.8409C20.15 4.30712 19.715 3.87312 19.1803 3.87312L17.4365 3.87506C16.9018 3.87506 16.4687 4.30906 16.4687 4.84381L16.4678 10.2804C16.4678 13.1479 18.8906 15.4923 21.825 15.4923C24.7612 15.4923 27.1356 13.1508 27.1356 10.2804V4.83606C27.1356 4.57934 27.033 4.33231 26.8508 4.15018C26.6697 3.96903 26.4226 3.86731 26.1659 3.86731L24.4125 3.86925C23.8777 3.86925 23.4437 4.30422 23.4447 4.838C23.4447 5.37275 23.8797 5.80675 24.4144 5.80675L25.1981 5.80578V10.2804C25.1981 12.0939 23.6801 13.5548 21.825 13.5548C19.9659 13.5548 18.4053 12.0968 18.4053 10.2804Z" fill="black"/>
<path id="Vector_2" d="M7.76074 15.7567C9.90085 15.7567 11.6357 14.0218 11.6357 11.8817C11.6357 9.74161 9.90085 8.00671 7.76074 8.00671C5.62064 8.00671 3.88574 9.74161 3.88574 11.8817C3.88574 14.0218 5.62064 15.7567 7.76074 15.7567Z" fill="black"/>
<path id="Vector_3" fill-rule="evenodd" clip-rule="evenodd" d="M8.71875 17.6158C8.40681 17.6671 8.08712 17.6943 7.76066 17.6943C7.42644 17.6943 7.099 17.6662 6.78125 17.6119V18.8907C6.78125 23.4351 10.4712 27.125 15.0156 27.125C19.56 27.125 23.25 23.4351 23.25 18.8907V17.2913C22.7898 17.3823 22.3132 17.4298 21.825 17.4298C21.6525 17.4298 21.482 17.424 21.3125 17.4124V18.8907C21.3125 22.3656 18.4905 25.1875 15.0156 25.1875C11.5407 25.1875 8.71875 22.3656 8.71875 18.8907V17.6158Z" fill="black"/>
</g>
</svg>
