<svg width="34" height="34" viewBox="0 0 34 34" fill="none" xmlns="http://www.w3.org/2000/svg">
<g id="emojione-monotone:hourglass-with-flowing-sand" clip-path="url(#clip0_111_4379)">
<path id="Vector" d="M27.988 13.1955C28.2923 13.3712 28.6934 13.2464 28.883 12.9181L29.426 11.9776C29.6159 11.6486 29.5228 11.2398 29.2185 11.0641L16.0313 3.45051C15.7267 3.27464 15.3265 3.39863 15.1365 3.72761L14.5935 4.66811C14.404 4.99644 14.4963 5.40571 14.801 5.58158L15.1429 5.77902L6.35388 21.0021L6.0119 20.8047C5.70728 20.6288 5.30704 20.7528 5.1171 21.0818L4.57429 22.022C4.38435 22.3509 4.47672 22.7602 4.78134 22.9361L17.9682 30.5495C18.2728 30.7254 18.6738 30.6009 18.8637 30.272L19.4065 29.3318C19.5965 29.0028 19.5034 28.594 19.1991 28.4183L18.8571 28.2209L27.646 12.9981L27.988 13.1955ZM6.94897 21.3461L15.738 6.12303L16.2979 6.44628C16.1534 6.36285 15.973 6.40377 15.8954 6.53822L15.4735 7.26892C15.3959 7.40338 15.4497 7.57865 15.5934 7.66287C14.0392 10.3548 12.96 13.2201 15.5584 15.9223L15.6843 16.0599C15.7943 16.1806 15.9264 16.3245 15.9847 16.414C15.8784 16.4076 15.6897 16.3662 15.5312 16.331L15.3569 16.2931C11.7065 15.3919 9.76487 17.7589 8.21068 20.4508C8.06625 20.3687 7.88704 20.4099 7.80979 20.5437L7.38791 21.2744C7.31029 21.4088 7.36434 21.5859 7.50918 21.6696L6.94897 21.3461ZM17.803 18.4186L17.9342 18.5619C19.7755 20.4771 19.799 22.4293 17.9845 25.6875L13.7493 23.2424C14.5738 21.7161 16.6814 17.8195 17.1159 17.067C17.2631 16.8121 17.941 16.7268 18.2317 16.7244C19.4594 16.7123 21.2546 16.3224 21.8973 15.2091L16.1017 11.863C15.4589 12.9762 16.0189 14.7259 16.6222 15.7952C16.7646 16.048 17.0305 16.6779 16.8833 16.9328C16.4375 17.7051 14.1263 21.4629 13.219 22.9362L8.98412 20.4912C10.8977 17.2914 12.6014 16.3356 15.1909 16.9745L15.3707 17.0147C15.8748 17.1265 16.351 17.2316 16.6133 16.7773C16.876 16.3223 16.5457 15.9614 16.1949 15.5797L16.0655 15.4378C14.2245 13.5228 14.2009 11.571 16.0155 8.31319L25.0162 13.5098C23.1019 16.71 21.3985 17.666 18.8103 17.0264L18.6347 16.9879C18.1284 16.8748 17.6497 16.7686 17.3869 17.2239C17.1241 17.6776 17.4539 18.0378 17.803 18.4186ZM18.2613 27.8773L17.7021 27.5544C17.8463 27.6377 18.027 27.5961 18.1047 27.4617L18.5265 26.731C18.604 26.5968 18.5495 26.4212 18.406 26.3375C19.9604 23.6452 21.0398 20.7796 18.4413 18.0774L18.3139 17.938C18.2045 17.8185 18.0736 17.6754 18.0149 17.5866C18.1219 17.5925 18.3129 17.6352 18.4728 17.6703L18.6431 17.7076C22.2928 18.6093 24.2346 16.242 25.789 13.5498C25.9329 13.632 26.1128 13.5912 26.1906 13.4564L26.6125 12.7257C26.6901 12.5913 26.6357 12.4148 26.4911 12.3313L27.0504 12.6542L18.2613 27.8773Z" fill="white"/>
</g>
<defs>
<clipPath id="clip0_111_4379">
<rect width="24" height="24" fill="white" transform="translate(12.6077 0.60791) rotate(30)"/>
</clipPath>
</defs>
</svg>
