<svg width="23" height="23" viewBox="0 0 23 23" fill="none" xmlns="http://www.w3.org/2000/svg">
<g id="8134640_gift_birthday_present_box_icon 1" clip-path="url(#clip0_111_3300)">
<g id="Icons">
<g id="Group">
<g id="Shape">
<path id="Vector" fill-rule="evenodd" clip-rule="evenodd" d="M3.78565 7.2666H18.976C20.1745 7.2666 21.1461 8.23817 21.1461 9.43665V10.5217C21.1461 11.7202 20.1745 12.6917 18.976 12.6917H3.78565C2.58717 12.6917 1.6156 11.7202 1.6156 10.5217V9.43665C1.6156 8.23817 2.58717 7.2666 3.78565 7.2666Z" stroke="#DA3A2A" stroke-width="2.17005" stroke-linecap="round" stroke-linejoin="round"/>
<path id="Vector_2" d="M20.0612 13.1265V20.5589C20.0612 21.0083 19.6448 21.3727 19.1312 21.3727H3.63083C3.11719 21.3727 2.70081 21.0083 2.70081 20.5589V13.1265" stroke="#DA3A2A" stroke-width="2.17005" stroke-linecap="round" stroke-linejoin="round"/>
<path id="Vector_3" d="M11.3843 8.2439V21.2642" stroke="#DA3A2A" stroke-width="2.17005" stroke-linecap="round" stroke-linejoin="round"/>
<path id="Vector_4" fill-rule="evenodd" clip-rule="evenodd" d="M15.9842 6.0079C14.8334 7.15874 11.3809 7.15874 11.3809 7.15874C11.3809 7.15874 11.3809 3.70621 12.5317 2.55537C13.4853 1.60291 15.0302 1.60334 15.9833 2.55635C16.9363 3.50936 16.9367 5.05435 15.9842 6.0079Z" stroke="#DA3A2A" stroke-width="2.17005" stroke-linecap="round" stroke-linejoin="round"/>
<path id="Vector_5" fill-rule="evenodd" clip-rule="evenodd" d="M6.77766 6.0079C7.9285 7.15874 11.381 7.15874 11.381 7.15874C11.381 7.15874 11.381 3.70621 10.2302 2.55537C9.27664 1.60291 7.73165 1.60334 6.77864 2.55635C5.82563 3.50936 5.82519 5.05435 6.77766 6.0079Z" stroke="#DA3A2A" stroke-width="2.17005" stroke-linecap="round" stroke-linejoin="round"/>
</g>
</g>
</g>
</g>
<defs>
<clipPath id="clip0_111_3300">
<rect width="21.7005" height="21.7005" fill="white" transform="translate(0.53064 0.756348)"/>
</clipPath>
</defs>
</svg>
