<svg width="18" height="21" viewBox="0 0 18 21" fill="none" xmlns="http://www.w3.org/2000/svg">
<path d="M13.6104 4.73383L12.6802 5.60883L8.71992 9.15258L4.75959 5.57383L3.82946 4.69883C3.61033 4.48056 3.34284 4.34449 3.06013 4.30749C2.77741 4.27049 2.49189 4.33417 2.23894 4.49066C1.98598 4.64714 1.77672 4.88955 1.63706 5.18785C1.49741 5.48615 1.4335 5.82723 1.45326 6.16883V16.3101C1.45326 16.6257 1.55738 16.9284 1.74271 17.1515C1.92805 17.3747 2.17942 17.5001 2.44152 17.5001H4.35996V9.18759L8.71992 13.1251L13.0799 9.18759V17.5001H14.9983C15.2604 17.5001 15.5118 17.3747 15.6971 17.1515C15.8825 16.9284 15.9866 16.6257 15.9866 16.3101V6.16883C16.0002 5.83018 15.9319 5.49404 15.7898 5.20128C15.6478 4.90852 15.4382 4.67175 15.1865 4.51975C14.9348 4.36775 14.6518 4.30706 14.372 4.34507C14.0922 4.38307 13.8276 4.51813 13.6104 4.73383Z" fill="white"/>
</svg>
