<svg width="34" height="17" viewBox="0 0 34 17" fill="none" xmlns="http://www.w3.org/2000/svg">
<path d="M6.49404 11.9537C6.92532 12.1502 7.39327 12.2613 7.8701 12.2805V13.0276C7.8449 13.0875 7.8449 13.1545 7.8701 13.2144C7.93241 13.2387 8.00207 13.2387 8.06437 13.2144H8.76049C8.8228 13.2387 8.89246 13.2387 8.95476 13.2144C8.97996 13.1545 8.97996 13.0875 8.95476 13.0276V12.2805C9.64109 12.2398 10.2973 11.995 10.8327 11.5801C11.0661 11.3902 11.2505 11.1508 11.3713 10.8807C11.4921 10.6106 11.546 10.3172 11.5288 10.0236C11.5454 9.65761 11.4497 9.29495 11.2536 8.98081C11.0365 8.68662 10.7397 8.45517 10.3956 8.31153C9.8759 8.0943 9.33303 7.9325 8.77668 7.82902C8.46519 7.77264 8.15713 7.6999 7.85391 7.61111C7.64551 7.53915 7.45716 7.42198 7.30349 7.26869C7.1843 7.13445 7.12089 6.96262 7.12541 6.78618C7.10944 6.63751 7.14122 6.48769 7.21647 6.35691C7.29172 6.22612 7.40684 6.12063 7.54632 6.05464C7.84052 5.89114 8.17858 5.8153 8.51766 5.83673C8.81371 5.83399 9.10488 5.90936 9.35948 6.05464C9.47044 6.11559 9.56675 6.19841 9.64208 6.29765C9.71741 6.3969 9.77006 6.51034 9.79659 6.63053C9.82345 6.69032 9.86914 6.74049 9.92723 6.774C9.98531 6.8075 10.0529 6.82265 10.1204 6.81731H11.1726C11.2328 6.81731 11.2904 6.79435 11.3329 6.75349C11.3754 6.71262 11.3993 6.6572 11.3993 6.5994C11.375 6.31024 11.2748 6.03173 11.1079 5.79004C10.9038 5.49215 10.6327 5.24214 10.3146 5.05849C9.95868 4.87271 9.56807 4.75634 9.16522 4.71607V3.9534C9.17065 3.91744 9.16728 3.88076 9.15537 3.84627C9.14346 3.81179 9.12334 3.78045 9.09661 3.75476C9.06989 3.72906 9.0373 3.70972 9.00143 3.69827C8.96556 3.68682 8.92741 3.68358 8.89001 3.6888H8.12913C8.06682 3.66457 7.99716 3.66457 7.93486 3.6888C7.90966 3.7487 7.90966 3.81567 7.93486 3.87557V4.62268C7.29851 4.66919 6.69564 4.91526 6.21883 5.3231C6.01567 5.50304 5.85439 5.72226 5.74558 5.96636C5.63677 6.21047 5.58288 6.47394 5.58746 6.73949C5.57079 7.00506 5.61755 7.27077 5.72419 7.51628C5.83082 7.76179 5.99448 7.98058 6.20264 8.15588C6.77493 8.55574 7.43327 8.82701 8.12913 8.94968C8.65796 9.08457 9.05729 9.19872 9.32711 9.2921C9.55602 9.36102 9.76615 9.47798 9.94229 9.63453C10.0071 9.69801 10.0578 9.77355 10.0912 9.85652C10.1246 9.93948 10.14 10.0281 10.1366 10.117C10.1386 10.2537 10.1039 10.3885 10.0358 10.5085C9.96776 10.6285 9.86862 10.7295 9.74802 10.8019C9.39231 10.9905 8.98774 11.077 8.58242 11.0509C8.20349 11.0698 7.82692 10.9833 7.49776 10.8019C7.25645 10.6641 7.07311 10.4493 6.97971 10.1949C6.94358 10.1333 6.89384 10.0802 6.83401 10.0392C6.76546 10.0188 6.69211 10.0188 6.62356 10.0392H5.55509C5.49787 10.0175 5.43423 10.0175 5.37701 10.0392C5.35708 10.0893 5.35708 10.1447 5.37701 10.1949C5.39288 10.529 5.50497 10.8523 5.70079 11.1287C5.88807 11.464 6.16107 11.7479 6.49404 11.9537Z" fill="#4BBC71"/>
<path d="M8.44701 16.7096C10.1031 16.7096 11.722 16.2253 13.099 15.3179C14.476 14.4105 15.5493 13.1208 16.183 11.6118C16.8168 10.1028 16.9826 8.44242 16.6595 6.84052C16.3364 5.23861 15.5389 3.76716 14.3679 2.61225C13.1969 1.45734 11.7049 0.670839 10.0806 0.3522C8.4563 0.0335605 6.77268 0.197098 5.24265 0.822131C3.71261 1.44716 2.40486 2.50562 1.48478 3.86365C0.5647 5.22168 0.0736084 6.8183 0.0736084 8.45158C0.0775754 10.6406 0.961044 12.7388 2.5305 14.2866C4.09996 15.8344 6.22746 16.7057 8.44701 16.7096ZM8.44701 1.67346C9.80207 1.67639 11.1259 2.07517 12.2513 2.81945C13.3768 3.56374 14.2534 4.62017 14.7706 5.8554C15.2878 7.09063 15.4224 8.44929 15.1573 9.75986C14.8922 11.0704 14.2393 12.2742 13.2812 13.2192C12.323 14.1641 11.1024 14.808 9.77355 15.0694C8.44467 15.3309 7.06705 15.1982 5.81457 14.6881C4.56208 14.178 3.4909 13.3135 2.73621 12.2035C1.98153 11.0936 1.57719 9.78798 1.57422 8.45158C1.57224 7.56092 1.74866 6.67864 2.09335 5.8554C2.43804 5.03216 2.94421 4.28417 3.5828 3.65438C4.22139 3.02458 4.97983 2.52538 5.81457 2.18544C6.6493 1.8455 7.5439 1.67151 8.44701 1.67346Z" fill="#4BBC71"/>
<path d="M19.5203 9.2226H30.8972L28.9166 11.1284C28.7839 11.2699 28.7133 11.454 28.7192 11.6431C28.7251 11.8323 28.807 12.0121 28.9482 12.1459C29.0894 12.2797 29.2792 12.3574 29.4788 12.3629C29.6784 12.3685 29.8727 12.3016 30.022 12.1759L33.3383 9.00437C33.4079 8.93715 33.4627 8.85754 33.4996 8.77015C33.5364 8.68275 33.5547 8.5893 33.5533 8.49519C33.5716 8.40386 33.5716 8.31009 33.5533 8.21877C33.503 8.11748 33.4296 8.02804 33.3383 7.9569L30.0067 4.72719C29.8574 4.60149 29.6631 4.53458 29.4635 4.54015C29.2639 4.54571 29.074 4.62334 28.9328 4.75714C28.7916 4.89094 28.7097 5.07081 28.7038 5.25995C28.698 5.4491 28.7686 5.63322 28.9012 5.77466L30.9279 7.69503H19.5203C19.4067 7.67339 19.2894 7.67592 19.1769 7.70245C19.0644 7.72898 18.9596 7.77884 18.8699 7.84843C18.7802 7.91802 18.708 8.00561 18.6584 8.10488C18.6087 8.20414 18.583 8.31261 18.583 8.42244C18.583 8.53228 18.6087 8.64074 18.6584 8.74001C18.708 8.83927 18.7802 8.92687 18.8699 8.99646C18.9596 9.06605 19.0644 9.11591 19.1769 9.14244C19.2894 9.16897 19.4067 9.1715 19.5203 9.14986V9.2226Z" fill="#4BBC71"/>
</svg>
