<svg width="23" height="23" viewBox="0 0 23 23" fill="none" xmlns="http://www.w3.org/2000/svg">
<path d="M13.6162 1.95642L13.6167 1.95679L20.0966 6.49041C20.5538 6.81045 21.0115 7.35609 21.3557 8.01553C21.7 8.67495 21.8863 9.36284 21.8863 9.92368V17.5512C21.8863 19.8676 20.0052 21.7487 17.6888 21.7487H5.56127C3.24762 21.7487 1.36377 19.8592 1.36377 17.5399V9.77743C1.36377 9.2598 1.53173 8.60728 1.84592 7.96915C2.15984 7.33158 2.57716 6.79494 2.99255 6.47093L2.99277 6.47076L8.62626 2.07416C8.62668 2.07383 8.62711 2.0735 8.62753 2.07317C9.97998 1.0263 12.2094 0.970739 13.6162 1.95642ZM11.625 18.3137C12.6386 18.3137 13.4688 17.4835 13.4688 16.47V13.095C13.4688 12.0814 12.6386 11.2512 11.625 11.2512C10.6115 11.2512 9.78127 12.0814 9.78127 13.095V16.47C9.78127 17.4835 10.6115 18.3137 11.625 18.3137Z" stroke="#484C52" stroke-width="2"/>
</svg>
