<svg width="25" height="25" viewBox="0 0 25 25" fill="none" xmlns="http://www.w3.org/2000/svg">
<g id="8666616_shopping_cart_icon 1" clip-path="url(#clip0_111_3211)">
<path id="Vector" d="M9.125 22.5C9.67728 22.5 10.125 22.0523 10.125 21.5C10.125 20.9477 9.67728 20.5 9.125 20.5C8.57272 20.5 8.125 20.9477 8.125 21.5C8.125 22.0523 8.57272 22.5 9.125 22.5Z" stroke="#484C52" stroke-width="2" stroke-linecap="round" stroke-linejoin="round"/>
<path id="Vector_2" d="M20.125 22.5C20.6773 22.5 21.125 22.0523 21.125 21.5C21.125 20.9477 20.6773 20.5 20.125 20.5C19.5727 20.5 19.125 20.9477 19.125 21.5C19.125 22.0523 19.5727 22.5 20.125 22.5Z" stroke="#484C52" stroke-width="2" stroke-linecap="round" stroke-linejoin="round"/>
<path id="Vector_3" d="M1.125 1.5H5.125L7.805 14.89C7.89644 15.3504 8.14691 15.764 8.51255 16.0583C8.87818 16.3526 9.3357 16.509 9.805 16.5H19.525C19.9943 16.509 20.4518 16.3526 20.8175 16.0583C21.1831 15.764 21.4336 15.3504 21.525 14.89L23.125 6.5H6.125" stroke="#484C52" stroke-width="2" stroke-linecap="round" stroke-linejoin="round"/>
</g>
<defs>
<clipPath id="clip0_111_3211">
<rect width="24" height="24" fill="white" transform="translate(0.125 0.5)"/>
</clipPath>
</defs>
</svg>
