<svg width="25" height="25" viewBox="0 0 25 25" fill="none" xmlns="http://www.w3.org/2000/svg">
<path d="M1.54159 1.5H9.54159C9.62999 1.5 9.71478 1.53512 9.77729 1.59763C9.8398 1.66014 9.87492 1.74493 9.87492 1.83333V9.83333C9.87492 9.92174 9.8398 10.0065 9.77729 10.069C9.71477 10.1315 9.62999 10.1667 9.54159 10.1667H1.54159C1.45318 10.1667 1.3684 10.1315 1.30588 10.069C1.24337 10.0065 1.20825 9.92174 1.20825 9.83333V1.83333C1.20825 1.74493 1.24337 1.66014 1.30588 1.59763C1.36839 1.53512 1.45318 1.5 1.54159 1.5ZM14.6392 14.931C14.7017 14.8685 14.7865 14.8333 14.8749 14.8333H22.8749C22.9633 14.8333 23.0481 14.8685 23.1106 14.931C23.1731 14.9935 23.2083 15.0783 23.2083 15.1667V23.1667C23.2083 23.2551 23.1731 23.3399 23.1106 23.4024C23.0481 23.4649 22.9633 23.5 22.8749 23.5H14.8749C14.7865 23.5 14.7017 23.4649 14.6392 23.4024C14.5767 23.3399 14.5416 23.2551 14.5416 23.1667V15.1667C14.5416 15.0783 14.5767 14.9935 14.6392 14.931ZM14.5416 5.83333C14.5416 3.44428 16.4859 1.5 18.8749 1.5C21.264 1.5 23.2083 3.44428 23.2083 5.83333C23.2083 8.22238 21.264 10.1667 18.8749 10.1667C16.4859 10.1667 14.5416 8.22238 14.5416 5.83333ZM1.20825 19.1667C1.20825 16.7776 3.15254 14.8333 5.54159 14.8333C7.93063 14.8333 9.87492 16.7776 9.87492 19.1667C9.87492 21.5557 7.93063 23.5 5.54159 23.5C3.15254 23.5 1.20825 21.5557 1.20825 19.1667Z" stroke="#484C52" stroke-width="2"/>
</svg>
