<svg width="20" height="20" viewBox="0 0 20 20" fill="none" xmlns="http://www.w3.org/2000/svg">
<path d="M14.6061 4.81493C12.1413 2.37696 8.14518 2.37696 5.68042 4.81493C5.09522 5.38982 4.63022 6.07654 4.31274 6.83473C3.99526 7.59292 3.83172 8.40728 3.83172 9.22994C3.83172 10.0526 3.99526 10.867 4.31274 11.6251C4.63022 12.3833 5.09522 13.0701 5.68042 13.6449L10.1429 18.0599L14.6061 13.6449C15.1913 13.0701 15.6563 12.3833 15.9738 11.6251C16.2913 10.867 16.4548 10.0526 16.4548 9.22994C16.4548 8.40728 16.2913 7.59292 15.9738 6.83473C15.6563 6.07654 15.1913 5.38982 14.6061 4.81493ZM10.1429 11.3165C9.61583 11.3165 9.12114 11.1102 8.74796 10.7357C8.37852 10.3634 8.17104 9.85899 8.17104 9.33307C8.17104 8.80715 8.37852 8.3027 8.74796 7.93042C9.12035 7.55596 9.61583 7.34969 10.1429 7.34969C10.6699 7.34969 11.1654 7.55596 11.5378 7.93042C11.9072 8.3027 12.1147 8.80715 12.1147 9.33307C12.1147 9.85899 11.9072 10.3634 11.5378 10.7357C11.1654 11.1102 10.6699 11.3165 10.1429 11.3165Z" fill="#566CA2"/>
</svg>
