<svg width="26" height="26" viewBox="0 0 26 26" fill="none" xmlns="http://www.w3.org/2000/svg">
<path d="M12.9999 1.06396C9.76985 1.06396 7.14197 3.69184 7.14197 6.92189C7.14197 10.152 9.76985 12.7799 12.9999 12.7799C16.23 12.7799 18.8579 10.152 18.8579 6.92189C18.8579 3.69184 16.23 1.06396 12.9999 1.06396ZM12.9999 11.7008C10.3649 11.7008 8.22107 9.55698 8.22107 6.92194C8.22107 4.2869 10.3649 2.14307 12.9999 2.14307C15.635 2.14307 17.7788 4.2869 17.7788 6.92194C17.7788 9.55698 15.635 11.7008 12.9999 11.7008Z" fill="white"/>
<path d="M15.7858 5.3695H14.5526V4.13623C14.5526 3.83825 14.311 3.59668 14.013 3.59668H11.9869C11.689 3.59668 11.4474 3.83825 11.4474 4.13623V5.3695H10.2141C9.91613 5.3695 9.67456 5.61107 9.67456 5.90905V7.93513C9.67456 8.23311 9.91613 8.47468 10.2141 8.47468H11.4474V9.70795C11.4474 10.0059 11.689 10.2475 11.9869 10.2475H14.013C14.311 10.2475 14.5526 10.0059 14.5526 9.70795V8.47468H15.7858C16.0838 8.47468 16.3254 8.23311 16.3254 7.93513V5.90905C16.3254 5.61112 16.0838 5.3695 15.7858 5.3695ZM15.2463 7.39557H14.013C13.715 7.39557 13.4735 7.63714 13.4735 7.93513V9.1684H12.5265V7.93513C12.5265 7.63714 12.2849 7.39557 11.9869 7.39557H10.7537V6.44861H11.9869C12.2849 6.44861 12.5265 6.20704 12.5265 5.90905V4.67578H13.4735V5.90905C13.4735 6.20704 13.715 6.44861 14.013 6.44861H15.2463V7.39557Z" fill="white"/>
<path d="M25.7479 15.6444C25.1962 14.4254 23.7058 13.9439 22.5398 14.6286L18.8438 16.8308C18.7341 15.9392 17.9728 15.2466 17.0521 15.2466H13.9118C11.6248 13.8758 8.73021 13.6704 6.19511 14.8769V14.2666C6.19511 13.9686 5.95354 13.7271 5.65556 13.7271H0.590332C0.292348 13.7271 0.0507812 13.9687 0.0507812 14.2666V16.7329C0.0507812 17.0309 0.292348 17.2724 0.590332 17.2724C0.888317 17.2724 1.12988 17.0309 1.12988 16.7329V18.8911V24.3966C1.12988 24.7281 4 24.0001 5.11606 23.8571H1.12988V18.8911C1.12988 18.5931 0.888317 18.3515 0.590332 18.3515C0.292348 18.3515 0.0507812 18.5931 0.0507812 18.8911V24.3966C0.0507812 24.6946 0.292348 24.9362 0.590332 24.9362H5.65561C5.95359 24.9362 6.19516 24.6946 6.19516 24.3966V23.4975L11.8438 24.5548C13.1685 24.8024 14.5425 24.5651 15.7113 23.8789L18.6863 22.1329C18.9433 21.9821 19.0294 21.6515 18.8785 21.3945C18.7277 21.1376 18.3972 21.0514 18.1401 21.2023L15.165 22.9483C14.224 23.5008 13.1149 23.6945 12.0422 23.4941L6.19511 22.3997V16.0931C8.44452 14.8145 11.2693 14.8643 13.4735 16.2436C13.5593 16.2972 13.6585 16.3257 13.7597 16.3257H17.052C17.4528 16.3257 17.7788 16.6518 17.7788 17.0525C17.7788 17.4532 17.4528 17.7791 17.052 17.7791H11.2271C10.9291 17.7791 10.6876 18.0207 10.6876 18.3187C10.6876 18.6167 10.9291 18.8582 11.2271 18.8582H17.0521C17.396 18.8582 17.7177 18.7615 17.9915 18.594C17.995 18.592 17.9986 18.5905 18.002 18.5884L23.0891 15.5574C23.6959 15.2009 24.4745 15.448 24.7651 16.0899C25.0181 16.6474 24.7977 17.297 24.2818 17.598L20.0011 20.1102C19.7441 20.261 19.658 20.5916 19.8088 20.8486C19.9599 21.106 20.2906 21.1914 20.5473 21.0409L24.827 18.5293C25.8176 17.9511 26.2295 16.7051 25.7479 15.6444Z" fill="white"/>
</svg>
