<svg width="23" height="23" viewBox="0 0 23 23" fill="none" xmlns="http://www.w3.org/2000/svg">
<g id="8673499_ic_fluent_notebook_error_filled_icon 1">
<path id="Vector" d="M16.0509 20.5832H16.0508L11.7743 20.5838C12.5208 19.5 12.9583 18.1861 12.9583 16.7707C12.9583 13.0542 9.94555 10.0415 6.22909 10.0415C5.57133 10.0415 4.93499 10.136 4.33325 10.3124V4.07275C4.33325 3.15803 5.07478 2.4165 5.9895 2.4165H16.0509C16.9656 2.4165 17.7071 3.15802 17.7071 4.07275V18.9269C17.7071 19.8416 16.9656 20.5832 16.0509 20.5832ZM5.26572 13.7232L5.26169 13.7454L5.25968 13.7678L5.25195 13.854L5.24996 13.8763V13.8986V17.7296V17.7519L5.25195 17.7742L5.25968 17.8604L5.26169 17.8829L5.26572 17.9051C5.32436 18.228 5.54088 18.4958 5.83268 18.6252C5.4219 18.7842 5.1306 19.1831 5.1306 19.65C5.1306 20.2567 5.62241 20.7485 6.22909 20.7485C6.83576 20.7485 7.32757 20.2567 7.32757 19.65C7.32757 19.1831 7.03629 18.7842 6.62553 18.6252C6.91735 18.4959 7.1339 18.228 7.19253 17.9051L7.19657 17.8828L7.19858 17.8603L7.2063 17.7742L7.20829 17.7519V17.7296V13.8986V13.8763L7.2063 13.854L7.19858 13.7679L7.19657 13.7454L7.19253 13.7232C7.10956 13.2661 6.71036 12.9195 6.22912 12.9195C5.74788 12.9195 5.3487 13.2662 5.26572 13.7232ZM6.69668 5.82522L6.69441 5.84201L6.69327 5.85892L6.68671 5.95645L6.68559 5.97319V5.98998V7.42785C6.68559 8.04527 7.14423 8.55473 7.7396 8.6355L7.75636 8.63777L7.77323 8.63891L7.87076 8.64547L7.88753 8.6466H7.90434H14.1334C14.7508 8.6466 15.2604 8.18797 15.341 7.59251L15.3433 7.57591L15.3444 7.5592L15.351 7.46167L15.3522 7.44478V7.42785V5.98998C15.3522 5.31688 14.8065 4.77123 14.1334 4.77123H7.90434C7.28692 4.77123 6.77746 5.22987 6.69668 5.82522ZM6.22909 11.9998C8.86395 11.9998 10.9999 14.1358 10.9999 16.7707C10.9999 19.4056 8.86395 21.5415 6.22909 21.5415C3.59422 21.5415 1.45825 19.4056 1.45825 16.7707C1.45825 14.1358 3.59422 11.9998 6.22909 11.9998ZM19.8853 14.8767C19.9915 14.8767 20.0807 14.9527 20.1002 15.0533L20.1041 15.1121V16.5311C20.1041 16.6372 20.028 16.7265 19.9276 16.7459L19.8687 16.7498H19.6666V14.8767H19.8853ZM19.8853 11.0433C19.9915 11.0433 20.0807 11.1194 20.1002 11.2199L20.1041 11.2788V12.6978C20.1041 12.8039 20.028 12.8931 19.9276 12.9126L19.8687 12.9165H19.6666V11.0433H19.8853ZM19.8853 7.21003C19.9915 7.21003 20.0807 7.2861 20.1002 7.38658L20.1041 7.44546V8.86442C20.1041 8.97061 20.0279 9.05981 19.9275 9.0792L19.8685 9.08317H19.6666V7.21003H19.8853Z" fill="white" stroke="white"/>
</g>
</svg>
