<svg width="20" height="24" viewBox="0 0 20 24" fill="none" xmlns="http://www.w3.org/2000/svg">
<path d="M15.97 15.26L13.8606 14.97C13.6126 14.9349 13.3612 14.968 13.1253 15.0667C12.8894 15.1654 12.6751 15.3273 12.4986 15.54L10.9706 17.38C8.613 15.9362 6.69675 13.6288 5.49773 10.79L7.03411 8.94001C7.39121 8.51001 7.56561 7.91001 7.50748 7.30001L7.26664 4.78001C7.21956 4.29219 7.02514 3.84225 6.72039 3.51586C6.41564 3.18947 6.02185 3.00943 5.614 3.01001H4.17728C3.23884 3.01001 2.45819 3.95001 2.51633 5.08001C2.95648 13.62 8.62862 20.44 15.7126 20.97C16.651 21.04 17.4317 20.1 17.4317 18.97V17.24C17.44 16.23 16.8088 15.38 15.97 15.26Z" fill="white"/>
</svg>
