<svg width="34" height="18" viewBox="0 0 34 18" fill="none" xmlns="http://www.w3.org/2000/svg">
<g id="Group 74687">
<path id="Vector" d="M23.4741 12.4375C23.9054 12.634 24.3734 12.7452 24.8502 12.7644V13.5115C24.825 13.5714 24.825 13.6384 24.8502 13.6983C24.9125 13.7225 24.9822 13.7225 25.0445 13.6983H25.7406C25.8029 13.7225 25.8726 13.7225 25.9349 13.6983C25.9601 13.6384 25.9601 13.5714 25.9349 13.5115V12.7644C26.6212 12.7236 27.2774 12.4789 27.8128 12.064C28.0462 11.8741 28.2306 11.6346 28.3514 11.3645C28.4722 11.0944 28.5261 10.8011 28.5089 10.5075C28.5255 10.1415 28.4298 9.77882 28.2337 9.46468C28.0166 9.1705 27.7198 8.93904 27.3757 8.7954C26.856 8.57817 26.3131 8.41637 25.7568 8.31289C25.4453 8.25651 25.1372 8.18377 24.834 8.09498C24.6256 8.02303 24.4373 7.90585 24.2836 7.75256C24.1644 7.61832 24.101 7.44649 24.1055 7.27005C24.0895 7.12138 24.1213 6.97157 24.1966 6.84078C24.2718 6.70999 24.3869 6.6045 24.5264 6.53851C24.8206 6.37501 25.1587 6.29917 25.4978 6.3206C25.7938 6.31786 26.085 6.39323 26.3396 6.53851C26.4505 6.59946 26.5469 6.68228 26.6222 6.78153C26.6975 6.88078 26.7502 6.99422 26.7767 7.1144C26.8036 7.17419 26.8492 7.22436 26.9073 7.25787C26.9654 7.29137 27.033 7.30652 27.1005 7.30118H28.1527C28.2129 7.30118 28.2705 7.27822 28.313 7.23736C28.3555 7.19649 28.3794 7.14107 28.3794 7.08328C28.3551 6.79411 28.2549 6.5156 28.088 6.27391C27.8839 5.97602 27.6128 5.72602 27.2947 5.54237C26.9388 5.35658 26.5482 5.24021 26.1453 5.19994V4.43727C26.1508 4.40131 26.1474 4.36463 26.1355 4.33014C26.1236 4.29566 26.1034 4.26432 26.0767 4.23863C26.05 4.21293 26.0174 4.19359 25.9815 4.18214C25.9457 4.17069 25.9075 4.16745 25.8701 4.17267H25.1092C25.0469 4.14844 24.9773 4.14844 24.915 4.17267C24.8898 4.23257 24.8898 4.29954 24.915 4.35945V5.10655C24.2786 5.15306 23.6757 5.39913 23.1989 5.80697C22.9958 5.98691 22.8345 6.20613 22.7257 6.45024C22.6169 6.69434 22.563 6.95782 22.5676 7.22336C22.5509 7.48893 22.5977 7.75465 22.7043 8.00015C22.8109 8.24566 22.9746 8.46445 23.1827 8.63975C23.755 9.03961 24.4134 9.31088 25.1092 9.43355C25.6381 9.56845 26.0374 9.68259 26.3072 9.77598C26.5361 9.84489 26.7462 9.96185 26.9224 10.1184C26.9872 10.1819 27.0379 10.2574 27.0713 10.3404C27.1047 10.4234 27.1201 10.512 27.1167 10.6009C27.1187 10.7376 27.084 10.8724 27.0159 10.9924C26.9479 11.1124 26.8487 11.2134 26.7281 11.2858C26.3724 11.4744 25.9678 11.5608 25.5625 11.5348C25.1836 11.5537 24.807 11.4672 24.4779 11.2858C24.2366 11.148 24.0532 10.9332 23.9598 10.6787C23.9237 10.6172 23.8739 10.5641 23.8141 10.5231C23.7456 10.5027 23.6722 10.5027 23.6037 10.5231H22.5352C22.478 10.5014 22.4143 10.5014 22.3571 10.5231C22.3372 10.5732 22.3372 10.6286 22.3571 10.6787C22.373 11.0128 22.4851 11.3362 22.6809 11.6126C22.8682 11.9479 23.1412 12.2318 23.4741 12.4375Z" fill="#FB5A5B"/>
<path id="Vector_2" d="M25.427 17.1935C23.7709 17.1935 22.152 16.7092 20.775 15.8018C19.398 14.8944 18.3248 13.6047 17.691 12.0957C17.0572 10.5867 16.8914 8.9263 17.2145 7.3244C17.5376 5.72249 18.3351 4.25104 19.5061 3.09613C20.6772 1.94122 22.1692 1.15472 23.7934 0.836079C25.4177 0.51744 27.1013 0.680977 28.6314 1.30601C30.1614 1.93104 31.4692 2.9895 32.3892 4.34753C33.3093 5.70556 33.8004 7.30217 33.8004 8.93546C33.7964 11.1244 32.913 13.2226 31.3435 14.7705C29.7741 16.3183 27.6466 17.1896 25.427 17.1935ZM25.427 2.15734C24.072 2.16027 22.7481 2.55904 21.6227 3.30333C20.4972 4.04762 19.6206 5.10405 19.1034 6.33928C18.5862 7.57451 18.4517 8.93316 18.7168 10.2437C18.9818 11.5543 19.6347 12.7581 20.5929 13.703C21.551 14.648 22.7716 15.2919 24.1005 15.5533C25.4293 15.8147 26.807 15.682 28.0595 15.172C29.3119 14.6619 30.3831 13.7973 31.1378 12.6874C31.8925 11.5774 32.2968 10.2719 32.2998 8.93546C32.3018 8.0448 32.1254 7.16252 31.7807 6.33928C31.436 5.51604 30.9298 4.76805 30.2912 4.13826C29.6526 3.50846 28.8942 3.00926 28.0595 2.66932C27.2247 2.32938 26.3301 2.15539 25.427 2.15734Z" fill="#FB5A5B"/>
<path id="Vector_3" d="M14.3539 9.70647H2.97711L4.95769 11.6123C5.09035 11.7537 5.16096 11.9379 5.15509 12.127C5.14921 12.3161 5.06729 12.496 4.92608 12.6298C4.78488 12.7636 4.59505 12.8412 4.39544 12.8468C4.19584 12.8524 4.00152 12.7855 3.85225 12.6598L0.535931 9.48825C0.466399 9.42102 0.411608 9.34142 0.374715 9.25402C0.337823 9.16663 0.319561 9.07317 0.320985 8.97906C0.302711 8.88773 0.302711 8.79397 0.320985 8.70264C0.371304 8.60136 0.444716 8.51192 0.535931 8.44077L3.86761 5.21106C4.01687 5.08536 4.21119 5.01845 4.4108 5.02402C4.61041 5.02959 4.80023 5.10721 4.94144 5.24101C5.08264 5.37481 5.16456 5.55468 5.17044 5.74383C5.17632 5.93297 5.1057 6.11709 4.97305 6.25853L2.9464 8.1789H14.3539C14.4676 8.15726 14.5849 8.15979 14.6974 8.18632C14.8098 8.21285 14.9147 8.26271 15.0044 8.3323C15.0941 8.40189 15.1663 8.48948 15.2159 8.58875C15.2655 8.68802 15.2913 8.79648 15.2913 8.90632C15.2913 9.01615 15.2655 9.12461 15.2159 9.22388C15.1663 9.32315 15.0941 9.41074 15.0044 9.48033C14.9147 9.54992 14.8098 9.59978 14.6974 9.62631C14.5849 9.65284 14.4676 9.65537 14.3539 9.63373V9.70647Z" fill="#FB5A5B"/>
</g>
</svg>
