<svg width="30" height="26" viewBox="0 0 30 26" fill="none" xmlns="http://www.w3.org/2000/svg">
<g id="3669446_return_assignment_ic_icon 1" clip-path="url(#clip0_111_4411)">
<path id="Vector" d="M23.75 3.25016H18.5187C18.0062 1.9935 16.6313 1.0835 15 1.0835C13.3687 1.0835 11.9938 1.9935 11.4813 3.25016H6.25C4.86875 3.25016 3.75 4.21975 3.75 5.41683V20.5835C3.75 21.7806 4.86875 22.7502 6.25 22.7502H23.75C25.1313 22.7502 26.25 21.7806 26.25 20.5835V5.41683C26.25 4.21975 25.1313 3.25016 23.75 3.25016ZM15 3.25016C15.6875 3.25016 16.25 3.73225 16.25 4.3335C16.25 4.93475 15.6875 5.41683 15 5.41683C14.3125 5.41683 13.75 4.93475 13.75 4.3335C13.75 3.73225 14.3125 3.25016 15 3.25016ZM20 16.2502H15V19.5002L8.75 14.0835L15 8.66683V11.9168H20V16.2502Z" fill="white"/>
</g>
<defs>
<clipPath id="clip0_111_4411">
<rect width="30" height="26" fill="white"/>
</clipPath>
</defs>
</svg>
