<svg width="54" height="45" viewBox="0 0 54 45" fill="none" xmlns="http://www.w3.org/2000/svg">
<path fill-rule="evenodd" clip-rule="evenodd" d="M26.8771 10C28.7791 16.086 39.1731 17.853 39.1731 25.986C39.1731 33.283 35.1371 37.931 26.8401 37.884C19.4741 37.842 13.1931 26.425 20.8771 19C21.6801 24.146 23.2621 23.837 24.8771 24C22.8621 17.822 23.2771 14.968 26.8771 10Z" fill="#DE5345" fill-opacity="0.8"/>
<path fill-rule="evenodd" clip-rule="evenodd" d="M27.8311 9.70199C27.7191 9.34099 27.4121 9.07399 27.0381 9.01299C26.6651 8.95199 26.2891 9.10699 26.0671 9.41299C24.1481 12.061 23.1041 14.158 22.7821 16.404C22.5141 18.271 22.7481 20.253 23.4551 22.766C23.3741 22.722 23.2941 22.669 23.2161 22.603C22.6211 22.104 22.2071 21.038 21.8651 18.846C21.8071 18.477 21.5491 18.171 21.1951 18.052C20.8411 17.933 20.4511 18.021 20.1821 18.281C15.1501 23.143 15.9681 29.573 19.1891 33.95C21.3501 36.888 24.5961 38.865 27.8341 38.884C32.3521 38.909 35.4161 37.597 37.3731 35.345C39.3071 33.117 40.1731 29.915 40.1731 25.986C40.1731 21.575 37.4311 18.844 34.3551 16.438C32.9591 15.345 31.5021 14.318 30.2801 13.187C29.1721 12.163 28.2561 11.059 27.8311 9.70199ZM26.7071 12.012C28.1241 14.334 30.6841 16.105 33.1221 18.013C35.7191 20.044 38.1731 22.263 38.1731 25.986C38.1731 29.354 37.521 32.124 35.8631 34.033C34.2271 35.917 31.6241 36.905 27.8451 36.884C25.1911 36.869 22.5721 35.173 20.7991 32.764C18.4291 29.542 17.5791 24.98 20.3131 21.169C20.7611 22.773 21.3381 23.638 21.9291 24.134C22.7981 24.864 23.7711 24.894 24.7771 24.995C25.1131 25.029 25.4441 24.891 25.6561 24.627C25.8681 24.364 25.9331 24.011 25.8281 23.69C24.8811 20.786 24.4781 18.668 24.7621 16.688C24.9831 15.141 25.6261 13.69 26.7071 12.012Z" fill="#DA3A2A"/>
</svg>
