<svg width="16" height="16" viewBox="0 0 16 16" fill="none" xmlns="http://www.w3.org/2000/svg">
<g clip-path="url(#clip0_111_3038)">
<path d="M7.21 0.75C8.48767 0.75 9.73664 1.12887 10.799 1.83871C11.8613 2.54854 12.6893 3.55745 13.1783 4.73786C13.6672 5.91828 13.7951 7.21717 13.5459 8.47028C13.2966 9.7234 12.6814 10.8745 11.7779 11.7779C10.8745 12.6814 9.7234 13.2966 8.47028 13.5459C7.21717 13.7951 5.91828 13.6672 4.73786 13.1783C3.55745 12.6893 2.54854 11.8613 1.83871 10.799C1.12887 9.73664 0.75 8.48767 0.75 7.21C0.75 5.4967 1.43061 3.85358 2.64209 2.64209C3.85358 1.43061 5.4967 0.75 7.21 0.75Z" stroke="#777777" stroke-opacity="0.72" stroke-width="1.5" stroke-miterlimit="10" stroke-linecap="round" stroke-linejoin="round"/>
<path d="M13.717 12.652C13.9277 12.652 14.1336 12.7145 14.3088 12.8316C14.4839 12.9486 14.6204 13.115 14.701 13.3097C14.7816 13.5043 14.8026 13.7185 14.7614 13.9251C14.7203 14.1318 14.6187 14.3215 14.4697 14.4704C14.3206 14.6193 14.1308 14.7207 13.9241 14.7617C13.7175 14.8026 13.5033 14.7814 13.3087 14.7007C13.1141 14.6199 12.9479 14.4832 12.831 14.308C12.7141 14.1327 12.6518 13.9267 12.652 13.716C12.6522 13.4337 12.7646 13.1631 12.9643 12.9636C13.164 12.7641 13.4347 12.652 13.717 12.652Z" stroke="#777777" stroke-opacity="0.72" stroke-width="1.5" stroke-miterlimit="10" stroke-linecap="round" stroke-linejoin="round"/>
</g>
<defs>
<clipPath id="clip0_111_3038">
<rect width="15.531" height="15.532" fill="white"/>
</clipPath>
</defs>
</svg>
