<svg width="17" height="17" viewBox="0 0 17 17" fill="none" xmlns="http://www.w3.org/2000/svg">
<g id="Iconly-Curved-Search 2" clip-path="url(#clip0_111_3474)">
<g id="Iconly/Curved/Search">
<g id="Search">
<path id="Stroke 1" d="M7.79249 1.18533C9.14723 1.18533 10.4715 1.58706 11.598 2.33971C12.7244 3.09237 13.6023 4.16214 14.1208 5.41376C14.6392 6.66537 14.7749 8.04262 14.5106 9.37132C14.2463 10.7 13.5939 11.9205 12.636 12.8785C11.678 13.8364 10.4575 14.4888 9.1288 14.7531C7.80009 15.0174 6.42285 14.8817 5.17123 14.3633C3.91962 13.8449 2.84984 12.9669 2.09719 11.8405C1.34454 10.7141 0.94281 9.38976 0.94281 8.03502C0.94281 6.21837 1.66447 4.47612 2.94904 3.19156C4.2336 1.90699 5.97584 1.18533 7.79249 1.18533Z" stroke="white" stroke-width="1.59048" stroke-miterlimit="10" stroke-linecap="round" stroke-linejoin="round"/>
<path id="Stroke 3" d="M14.6925 13.8053C14.9159 13.8053 15.1342 13.8716 15.32 13.9957C15.5057 14.1198 15.6504 14.2963 15.7359 14.5027C15.8213 14.7091 15.8436 14.9362 15.7999 15.1553C15.7563 15.3743 15.6486 15.5756 15.4906 15.7334C15.3326 15.8913 15.1313 15.9988 14.9121 16.0422C14.693 16.0857 14.4659 16.0632 14.2596 15.9776C14.0533 15.8919 13.877 15.747 13.753 15.5612C13.6291 15.3753 13.563 15.1569 13.5632 14.9335C13.5635 14.6342 13.6826 14.3472 13.8944 14.1357C14.1061 13.9242 14.3932 13.8053 14.6925 13.8053Z" stroke="white" stroke-width="1.59048" stroke-miterlimit="10" stroke-linecap="round" stroke-linejoin="round"/>
</g>
</g>
</g>
<defs>
<clipPath id="clip0_111_3474">
<rect width="16.4679" height="16.4689" fill="white" transform="translate(0.148193 0.390137)"/>
</clipPath>
</defs>
</svg>
