<svg width="13" height="12" viewBox="0 0 13 12" fill="none" xmlns="http://www.w3.org/2000/svg">
<g id="star">
<g id="vuesax/bold/star">
<g id="star_2">
<path id="Vector" d="M7.48231 1.75507L8.38834 3.51507C8.51189 3.76007 8.84136 3.99507 9.11935 4.04007L10.7615 4.30507C11.8117 4.47507 12.0588 5.21507 11.3021 5.94507L10.0254 7.18507C9.80917 7.39507 9.69077 7.80007 9.75769 8.09007L10.1232 9.62507C10.4115 10.8401 9.7474 11.3101 8.64059 10.6751L7.10136 9.79007C6.82337 9.63007 6.36521 9.63007 6.08207 9.79007L4.54284 10.6751C3.44118 11.3101 2.77195 10.8351 3.06024 9.62507L3.42574 8.09007C3.49266 7.80007 3.37426 7.39507 3.15805 7.18507L1.88136 5.94507C1.12976 5.21507 1.37172 4.47507 2.42189 4.30507L4.06408 4.04007C4.33692 3.99507 4.66639 3.76007 4.78994 3.51507L5.69598 1.75507C6.19018 0.800068 6.99325 0.800068 7.48231 1.75507Z" fill="#FCD240"/>
</g>
</g>
</g>
</svg>
