<svg width="24" height="24" viewBox="0 0 24 24" fill="none" xmlns="http://www.w3.org/2000/svg">
<g id="753936_nails_saloon_beauty_paint_polish_icon 1">
<g id="Group">
<path id="Vector" d="M13.9109 7.65562H11.5522C10.7696 7.65562 10.6886 7.08299 10.6841 6.88199V5.95687C10.6841 5.15024 10.1313 4.49512 9.44582 4.49512H7.35969C6.67419 4.49512 6.12219 5.15024 6.12219 5.95687V6.92512C6.10494 7.17824 5.98194 7.65562 5.29869 7.65562H2.89419C2.22107 7.65562 1.68144 8.19524 1.68144 8.86837V10.1996C1.68144 10.1996 1.66644 11.3805 2.17494 13.173C2.17532 13.1737 2.17532 13.1745 2.17607 13.1749L4.23782 20.4409C4.23894 20.4472 4.56182 21.9746 4.56182 22.3826V23.3797C4.56182 23.7127 4.82882 23.9854 5.16932 23.9854H11.6362C11.9756 23.9854 12.2426 23.7124 12.2426 23.3797V22.9031C12.2564 22.5274 12.3843 21.6754 12.4874 21.0397L12.9648 19.0399L14.6133 13.2326C14.9654 11.9914 15.1233 10.0792 15.1233 10.0792V8.86874C15.1237 8.19524 14.5848 7.65562 13.9109 7.65562ZM12.5381 12.8531C12.4844 13.1359 12.4263 13.44 12.3667 13.7524L11.4738 17.9302L10.5341 21.6836C10.3856 22.2795 9.97832 22.395 9.75107 22.413H7.07732C6.87632 22.3954 6.45819 22.2746 6.28832 21.5865L5.43444 18.129L4.34844 13.1276L4.27719 12.693L4.27644 12.6919L4.22769 12.3952C4.20107 12.0337 4.29519 11.4679 5.17569 11.4679H5.66094C5.79857 11.4712 6.18969 11.5312 6.30632 12.0922L7.36682 17.2035C7.36757 17.2042 7.52432 17.4919 7.55807 17.2042L8.16782 11.9505C8.16894 11.9407 8.23982 11.4679 8.80194 11.4679H11.5694C11.8687 11.4739 12.7889 11.5905 12.5381 12.8531Z" fill="#241F20"/>
<path id="Vector_2" d="M21.1522 12.0315H20.8259C20.3137 12.0409 20.2649 11.5391 20.2612 11.3715V5.27139C20.2638 5.05089 20.2927 4.11339 20.6414 3.09077C20.6414 3.08852 20.6414 3.08739 20.6426 3.08552L21.5069 0.549769C21.5069 0.549769 21.5069 0.549394 21.5069 0.548269C21.6963 -0.00748116 21.0772 0.0150188 21.0772 0.0150188H18.0757C17.4997 0.0150188 17.6261 0.523144 17.6677 0.651769L17.6692 0.656269C17.6737 0.670144 17.6771 0.680644 17.6771 0.680644L18.5332 3.22689C18.5332 3.22689 18.8744 4.26189 18.8744 5.17239V11.3801C18.8744 11.9186 18.5737 12.018 18.4076 12.0319H18.0172C17.3726 12.0319 16.8513 12.7763 16.8513 13.6946V22.3226C16.8513 23.2418 17.3729 23.9861 18.0172 23.9861H21.1522C21.7946 23.9861 22.3184 23.2421 22.3184 22.3226V13.6943C22.3188 12.7759 21.7946 12.0315 21.1522 12.0315Z" fill="#241F20"/>
</g>
</g>
</svg>
